<svg xmlns="http://www.w3.org/2000/svg" version="1.1" xmlns:xlink="http://www.w3.org/1999/xlink" xmlns:svgjs="http://svgjs.dev/svgjs" width="1000" height="1000" viewBox="0 0 1000 1000"><rect width="1000" height="1000" fill="#ffffff"></rect><g transform="matrix(0.7,0,0,0.7,150,150)"><svg viewBox="0 0 280 280" data-background-color="#ffffff" preserveAspectRatio="xMidYMid meet" height="1000" width="1000" xmlns="http://www.w3.org/2000/svg" xmlns:xlink="http://www.w3.org/1999/xlink"><g id="tight-bounds" transform="matrix(1,0,0,1,0,0)"><svg viewBox="0 0 280 280" height="280" width="280"><g><svg viewBox="0 0 280 280" height="280" width="280"><g><svg viewBox="0 0 280 280" height="280" width="280"><g id="textblocktransform"><svg viewBox="0 0 280 280" height="280" width="280" id="textblock"><g><svg viewBox="0 0 280 280" height="280" width="280"><g transform="matrix(1,0,0,1,57.50420886156945,57.50420886156945)"><svg viewBox="0 0 164.9915822768611 164.9915822768611" height="164.9915822768611" width="164.9915822768611"><g><circle r="82" cx="82.49579113843055" cy="82.49579113843055" fill="#50a060" data-fill-palette-color="accent"></circle><svg xmlns="http://www.w3.org/2000/svg" xmlns:xlink="http://www.w3.org/1999/xlink" version="1.1" x="24.74873734152917" y="24.748737341529164" viewBox="0 0 16 16" style="enable-background:new 0 0 16 16;" xml:space="preserve" height="115.49410759380275" width="115.49410759380275" class="icon-o-0" data-fill-palette-color="quaternary" id="o-0"><g fill="#ffffff" data-fill-palette-color="quaternary"><path d="M12 1H4V0H0v4h1v8H0v4h4v-1h8v1h4v-4h-1V4h1V0h-4V1zM13 12h-1v1H4v-1H3V4h1V3h8v1h1V12z" fill="#ffffff" data-fill-palette-color="quaternary"></path></g></svg></g></svg></g><g><path d="M33.723 101.034l-3.603 11.419-4.822-1.521-14.953-11.388-1.729 5.477-4.888-1.543 3.504-11.106 4.642 1.465 15.086 11.597 1.875-5.942z" fill="#50a060" data-fill-palette-color="primary"></path><path d="M55.605 65.859c-1.671 1.906-3.348 2.867-5.031 2.883-1.687 0.021-3.58-0.889-5.68-2.731v0l-2.043-1.792 3.616-4.123 2.604 2.284c1.043 0.914 1.857 1.037 2.444 0.369v0c0.328-0.374 0.446-0.73 0.353-1.067-0.088-0.342-0.392-0.741-0.91-1.196v0c-0.683-0.599-1.322-1.014-1.916-1.243-0.588-0.225-1.144-0.346-1.667-0.363-0.522-0.008-1.385 0.034-2.587 0.127v0l-3.385 0.221c-2.596 0.203-4.725-0.424-6.387-1.881v0c-1.786-1.566-2.787-3.173-3.003-4.818-0.211-1.641 0.375-3.25 1.758-4.827v0c1.654-1.886 3.343-2.805 5.067-2.758 1.729 0.051 3.659 1.011 5.789 2.88v0l-3.741 4.265-1.457-1.238c-0.279-0.245-0.567-0.36-0.861-0.345-0.3 0.01-0.573 0.155-0.818 0.434v0c-0.284 0.324-0.407 0.645-0.368 0.962 0.035 0.322 0.207 0.619 0.517 0.89v0c0.678 0.595 1.726 0.825 3.142 0.69v0l4.481-0.385c1.057-0.088 1.996-0.103 2.819-0.043 0.823 0.068 1.671 0.283 2.546 0.644 0.875 0.361 1.776 0.949 2.704 1.763v0c2.065 1.811 3.299 3.565 3.702 5.259 0.402 1.685-0.161 3.398-1.688 5.139z" fill="#50a060" data-fill-palette-color="primary"></path><path d="M92.707 38.174l-4.952 2.263-11.582-25.349 5.223-2.387 7.87 11.068-5.543-12.131 4.898-2.238 11.582 25.349-4.952 2.263-8.343-11.53z" fill="#50a060" data-fill-palette-color="primary"></path><path d="M139.325 27.89l-5.415-0.042 2.903-27.848 9.446 0.073 2.442 27.89-5.285-0.041-0.354-4.512-3.374-0.026zM141.295 4.773l-1.154 14.165 2.528 0.019-1.115-14.182z" fill="#50a060" data-fill-palette-color="primary"></path><path d="M182.272 35.919l11.66-25.313 7.775 3.581c1.242 0.572 2.071 1.294 2.488 2.165 0.423 0.874 0.519 1.872 0.287 2.993-0.231 1.121-0.708 2.465-1.43 4.031v0c-0.661 1.434-1.364 2.469-2.109 3.105-0.746 0.635-1.652 0.898-2.719 0.786v0c0.693 0.509 1.071 1.147 1.135 1.915 0.063 0.767-0.145 1.672-0.626 2.714v0l-4.464 9.549-4.954-2.282 4.56-9.899c0.328-0.711 0.397-1.227 0.208-1.548-0.18-0.324-0.634-0.654-1.363-0.989v0l-5.322 11.553zM194.767 22.354l1.211 0.558c0.705 0.325 1.412-0.281 2.12-1.818v0c0.308-0.669 0.511-1.182 0.61-1.538 0.092-0.359 0.091-0.641-0.005-0.846-0.098-0.199-0.295-0.366-0.591-0.502v0l-1.184-0.546z" fill="#50a060" data-fill-palette-color="primary"></path><path d="M225.609 67.031l-3.613-4.205 21.137-18.164 3.594 4.182-8.462 7.272 10.155-5.302 3.659 4.258-11.701 5.947-9.015 12.708-3.762-4.379 8.245-11.114z" fill="#50a060" data-fill-palette-color="primary"></path><path d="M247.888 106.338l20.488-6.453c-0.548-0.217-1.054-0.597-1.518-1.139-0.465-0.549-0.788-1.112-0.97-1.688v0l4.235-1.334c0.433 0.866 1.077 1.654 1.934 2.365 0.865 0.715 1.822 1.124 2.87 1.225v0l1.345 4.273-26.611 8.381z" fill="#50a060" data-fill-palette-color="primary"></path><path d="M10.981 190.232l-3.641-11.521 4.869-1.539 18.949 0.734-1.746-5.523 4.935-1.56 3.542 11.209-4.679 1.478-19.189-0.835 1.896 5.998z" fill="#50a060" data-fill-palette-color="primary"></path><path d="M37.282 234.223c-1.685-1.92-2.428-3.723-2.229-5.408 0.204-1.689 1.366-3.463 3.486-5.323v0l2.065-1.812 3.65 4.16-2.633 2.311c-1.052 0.923-1.283 1.722-0.693 2.395v0c0.333 0.379 0.675 0.542 1.026 0.49 0.351-0.043 0.79-0.296 1.319-0.76v0c0.688-0.604 1.185-1.185 1.49-1.744 0.309-0.563 0.505-1.105 0.585-1.626 0.076-0.517 0.147-1.387 0.213-2.61v0l0.223-3.413c0.143-2.624 1.05-4.669 2.721-6.135v0c1.806-1.584 3.543-2.376 5.212-2.375 1.669 0.001 3.202 0.797 4.598 2.387v0c1.672 1.905 2.372 3.719 2.099 5.441-0.272 1.722-1.483 3.526-3.633 5.413v0l-3.781-4.31 1.432-1.296c0.279-0.245 0.431-0.52 0.455-0.823 0.029-0.299-0.079-0.588-0.324-0.868v0c-0.289-0.329-0.596-0.493-0.92-0.49-0.324-0.007-0.641 0.125-0.95 0.396v0c-0.693 0.608-1.063 1.63-1.11 3.067v0l-0.197 4.529c-0.055 1.064-0.171 2.004-0.346 2.82-0.166 0.817-0.488 1.637-0.965 2.462-0.482 0.829-1.192 1.655-2.129 2.478v0c-2.08 1.825-3.993 2.829-5.741 3.01-1.742 0.178-3.383-0.611-4.923-2.366z" fill="#50a060" data-fill-palette-color="primary"></path><path d="M82.796 267.521l-5.007-2.287 11.688-25.585 5.269 2.407-3.238 13.315 5.592-12.24 4.943 2.258-11.687 25.585-4.998-2.282 3.29-13.982z" fill="#50a060" data-fill-palette-color="primary"></path><path d="M139.511 279.957l-5.474 0.043 2.496-28.149 9.535-0.075 2.909 28.107-5.345 0.042-0.424-4.546-3.404 0.027zM141.129 256.593l-0.942 14.321 2.558-0.02-1.357-14.303z" fill="#50a060" data-fill-palette-color="primary"></path><path d="M192.211 269.764l-11.767-25.549 7.856-3.619c1.248-0.575 2.342-0.735 3.284-0.482 0.948 0.25 1.774 0.83 2.479 1.74 0.71 0.908 1.432 2.157 2.164 3.748v0c0.666 1.447 0.997 2.664 0.992 3.653-0.002 0.98-0.396 1.844-1.183 2.594v0c0.844-0.199 1.582-0.071 2.214 0.383 0.633 0.454 1.192 1.208 1.678 2.262v0l4.388 9.694-4.999 2.303-4.601-9.99c-0.33-0.717-0.68-1.111-1.049-1.183-0.369-0.071-0.921 0.063-1.656 0.401v0l5.371 11.663zM190.006 251.273l1.221-0.562c0.711-0.328 0.711-1.263 0.001-2.806v0c-0.311-0.675-0.574-1.167-0.79-1.477-0.216-0.31-0.432-0.495-0.65-0.556-0.215-0.054-0.473-0.012-0.775 0.127v0l-1.184 0.545z" fill="#50a060" data-fill-palette-color="primary"></path><path d="M243.716 232.511l-3.653 4.25-21.331-18.336 3.628-4.22 8.544 7.345-6.838-9.33 3.698-4.302 7.71 10.774 14.043 7.071-3.796 4.416-12.338-6.55z" fill="#50a060" data-fill-palette-color="primary"></path><path d="M270.652 184.87l-20.674-6.521c0.325 0.492 0.524 1.098 0.596 1.816 0.072 0.719 0.016 1.372-0.17 1.96v0l-4.281-1.35c0.144-0.964 0.067-1.99-0.229-3.078-0.297-1.089-0.851-1.98-1.662-2.674v0l1.36-4.31 26.854 8.471z" fill="#50a060" data-fill-palette-color="primary"></path><path d="M11.298 141.98c0-1.78 1.443-3.224 3.224-3.224 1.78 0 3.224 1.443 3.223 3.224 0 1.78-1.443 3.224-3.223 3.223-1.78 0-3.224-1.443-3.224-3.223z" fill="#50a060" data-fill-palette-color="primary"></path><path d="M262.131 141.98c0-1.78 1.443-3.224 3.223-3.224 1.78 0 3.224 1.443 3.224 3.224 0 1.78-1.443 3.224-3.224 3.223-1.78 0-3.224-1.443-3.223-3.223z" fill="#50a060" data-fill-palette-color="primary"></path></g></svg></g></svg></g></svg></g><g></g></svg></g><defs></defs></svg><rect width="280" height="280" fill="none" stroke="none" visibility="hidden"></rect></g></svg></g></svg>